<?xml version="1.0" encoding="utf-8"?>
<!-- Generator: Adobe Illustrator 16.0.0, SVG Export Plug-In . SVG Version: 6.00 Build 0)  -->
<!DOCTYPE svg PUBLIC "-//W3C//DTD SVG 1.1//EN" "http://www.w3.org/Graphics/SVG/1.1/DTD/svg11.dtd">
<svg version="1.1" xmlns="http://www.w3.org/2000/svg" xmlns:xlink="http://www.w3.org/1999/xlink" x="0px" y="0px"
	 width="188.659px" height="760px" viewBox="0 0 188.659 760" enable-background="new 0 0 188.659 760" xml:space="preserve">
<g id="Layer_1" display="none">
	
		<rect x="-497.841" y="-300.5" display="inline" fill="#606060" stroke="#000000" stroke-miterlimit="10" width="1380" height="1298"/>
</g>
<g id="Layer_2">
	<polygon fill="#FFFFFF" points="-0.341,760 17.659,707.07 17.659,44.103 -0.341,0 	"/>
	
		<rect x="14" y="49" transform="matrix(-0.5935 -0.8048 0.8048 -0.5935 -2.9336 132.5182)" opacity="0.9" fill="#FFFFFF" width="36" height="36"/>
	
		<rect x="61.109" y="95.095" transform="matrix(0.1305 -0.9914 0.9914 0.1305 -42.9301 170.4773)" opacity="0.5" fill="#FFFFFF" width="29.238" height="29.238"/>
	
		<rect x="10.327" y="132.327" transform="matrix(-0.1131 -0.9936 0.9936 -0.1131 -118.5889 182.141)" opacity="0.9" fill="#FFFFFF" width="23.345" height="23.345"/>
	
		<rect x="7.652" y="202.027" transform="matrix(0.4629 -0.8864 0.8864 0.4629 -180.358 137.2555)" opacity="0.9" fill="#FFFFFF" width="30.869" height="30.869"/>
	
		<rect x="2.983" y="248.358" transform="matrix(0.9903 -0.1386 0.1386 0.9903 -36.9841 5.7904)" opacity="0.9" fill="#FFFFFF" width="40.206" height="40.206"/>
	
		<rect x="83.861" y="199.925" transform="matrix(0.4629 -0.8864 0.8864 0.4629 -135.796 196.4719)" opacity="0.5" fill="#FFFFFF" width="20.74" height="20.74"/>
	
		<rect x="11.409" y="168.408" transform="matrix(0.5473 -0.8369 0.8369 0.5473 -139.0819 96.8642)" opacity="0.9" fill="#FFFFFF" width="17.184" height="17.184"/>
	
		<rect x="41.372" y="165.962" transform="matrix(0.2203 -0.9754 0.9754 0.2203 -130.8659 180.8622)" fill="#FFFFFF" width="12.663" height="12.663"/>
	
		<rect x="9.505" y="100.504" transform="matrix(0.4079 -0.913 0.913 0.4079 -89.1833 82.4839)" opacity="0.9" fill="#FFFFFF" width="18.991" height="18.991"/>
	
		<rect x="25.421" y="261.419" transform="matrix(0.1335 -0.9911 0.9911 0.1335 -237.8715 263.9473)" fill="#FFFFFF" width="13.16" height="13.161"/>
	
		<rect x="10.328" y="340.328" transform="matrix(-0.1131 -0.9936 0.9936 -0.1131 -325.255 413.6614)" opacity="0.9" fill="#FFFFFF" width="23.344" height="23.345"/>
	
		<rect x="77.328" y="299.328" transform="matrix(-0.1131 -0.9936 0.9936 -0.1131 -209.9419 434.5955)" opacity="0.5" fill="#FFFFFF" width="23.344" height="23.345"/>
	
		<rect x="45.622" y="324.302" transform="matrix(-0.1131 -0.9936 0.9936 -0.1131 -270.7448 418.5961)" opacity="0.9" fill="#FFFFFF" width="11.673" height="11.673"/>
	
		<rect x="7.652" y="410.027" transform="matrix(0.4629 -0.8864 0.8864 0.4629 -364.7292 248.9688)" opacity="0.9" fill="#FFFFFF" width="30.869" height="30.868"/>
	
		<rect x="59.652" y="457.028" transform="matrix(0.9518 0.3068 -0.3068 0.9518 148.5901 -0.249)" opacity="0.5" fill="#FFFFFF" width="30.869" height="30.869"/>
	
		<rect x="59.622" y="565.998" transform="matrix(0.9518 0.3069 -0.3069 0.9518 179.922 6.5638)" opacity="0.5" fill="#FFFFFF" width="18.929" height="18.93"/>
	
		<rect x="56.948" y="654.872" transform="matrix(0.3771 0.9262 -0.9262 0.3771 657.7753 352.0666)" opacity="0.5" fill="#FFFFFF" width="20.383" height="20.384"/>
	
		<rect x="11.409" y="376.408" transform="matrix(0.5473 -0.8369 0.8369 0.5473 -313.1656 191.0279)" opacity="0.9" fill="#FFFFFF" width="17.184" height="17.183"/>
	
		<rect x="41.372" y="373.962" transform="matrix(0.2203 -0.9754 0.9754 0.2203 -333.7542 343.0327)" opacity="0.9" fill="#FFFFFF" width="12.663" height="12.663"/>
	
		<rect x="9.505" y="308.504" transform="matrix(0.4079 -0.913 0.913 0.4079 -279.0972 205.6505)" opacity="0.9" fill="#FFFFFF" width="18.991" height="18.991"/>
	<polygon opacity="0.9" fill="#FFFFFF" points="5.083,572.414 7.722,548.273 30.917,551.021 28.278,575.163 	"/>
	<polygon opacity="0.9" fill="#FFFFFF" points="15.284,490.361 3.531,466.938 26.035,454.707 37.788,478.129 	"/>
	<polygon opacity="0.9" fill="#FFFFFF" points="13.512,524.75 4.107,509.781 18.489,499.992 27.894,514.961 	"/>
	<polygon opacity="0.9" fill="#FFFFFF" points="38.923,540.149 36.133,527.293 48.484,524.391 51.275,537.246 	"/>
	<polygon opacity="0.9" fill="#FFFFFF" points="10.204,610.161 2.458,592.113 19.797,584.052 27.543,602.098 	"/>
	<polygon opacity="0.9" fill="#FFFFFF" points="5.083,649.414 7.722,625.273 30.917,628.021 28.278,652.163 	"/>
	<polygon opacity="0.9" fill="#FFFFFF" points="10.204,687.161 2.458,669.113 19.797,661.052 27.543,679.098 	"/>
	<circle opacity="0.2" fill="#FFFFFF" cx="141.9" cy="250.593" r="5.758"/>
	<circle opacity="0.2" fill="#FFFFFF" cx="182.9" cy="491.594" r="5.758"/>
	<circle opacity="0.5" fill="#FFFFFF" cx="113.9" cy="630.594" r="5.758"/>
	<circle opacity="0.2" fill="#FFFFFF" cx="129.9" cy="87.594" r="5.758"/>
</g>
</svg>
