<?xml version="1.0" encoding="utf-8"?>
<!-- Generator: Adobe Illustrator 16.0.0, SVG Export Plug-In . SVG Version: 6.00 Build 0)  -->
<!DOCTYPE svg PUBLIC "-//W3C//DTD SVG 1.1//EN" "http://www.w3.org/Graphics/SVG/1.1/DTD/svg11.dtd">
<svg version="1.1" xmlns="http://www.w3.org/2000/svg" xmlns:xlink="http://www.w3.org/1999/xlink" x="0px" y="0px"
	 width="188.659px" height="760px" viewBox="0 0 188.659 760" enable-background="new 0 0 188.659 760" xml:space="preserve">
<g id="Layer_1" display="none">
	
		<rect x="-497.841" y="-300.5" display="inline" fill="#606060" stroke="#000000" stroke-miterlimit="10" width="1380" height="1298"/>
</g>
<g id="Layer_2">
	<polygon fill="#FFFFFF" points="188.659,760 170.659,707.07 170.659,44.103 188.659,0 	"/>
	
		<rect x="138.659" y="49" transform="matrix(0.5935 -0.8048 0.8048 0.5935 9.7602 153.3237)" opacity="0.9" fill="#FFFFFF" width="36" height="36"/>
	
		<rect x="98.312" y="95.095" transform="matrix(-0.1305 -0.9914 0.9914 -0.1305 18.8918 235.9964)" opacity="0.5" fill="#FFFFFF" width="29.238" height="29.238"/>
	
		<rect x="154.987" y="132.327" transform="matrix(0.1131 -0.9936 0.9936 0.1131 4.738 293.3073)" opacity="0.9" fill="#FFFFFF" width="23.345" height="23.345"/>
	
		<rect x="150.138" y="202.027" transform="matrix(-0.4629 -0.8864 0.8864 -0.4629 49.4641 464.8939)" opacity="0.9" fill="#FFFFFF" width="30.869" height="30.869"/>
	
		<rect x="145.47" y="248.358" transform="matrix(-0.9903 -0.1386 0.1386 -0.9903 292.3407 557.2788)" opacity="0.9" fill="#FFFFFF" width="40.206" height="40.206"/>
	
		<rect x="84.058" y="199.925" transform="matrix(-0.4629 -0.8864 0.8864 -0.4629 -48.2654 391.3452)" opacity="0.5" fill="#FFFFFF" width="20.74" height="20.74"/>
	
		<rect x="160.066" y="168.408" transform="matrix(-0.5473 -0.8369 0.8369 -0.5473 112.8314 415.0289)" opacity="0.9" fill="#FFFFFF" width="17.184" height="17.184"/>
	
		<rect x="134.624" y="165.962" transform="matrix(-0.2203 -0.9754 0.9754 -0.2203 3.9536 347.746)" fill="#FFFFFF" width="12.663" height="12.663"/>
	
		<rect x="160.163" y="100.504" transform="matrix(-0.4079 -0.913 0.913 -0.4079 138.4195 309.7685)" opacity="0.9" fill="#FFFFFF" width="18.991" height="18.991"/>
	
		<rect x="150.077" y="261.419" transform="matrix(-0.1335 -0.9911 0.9911 -0.1335 -88.037 459.0222)" fill="#FFFFFF" width="13.16" height="13.161"/>
	
		<rect x="154.987" y="340.328" transform="matrix(0.1131 -0.9936 0.9936 0.1131 -201.9286 477.7874)" opacity="0.9" fill="#FFFFFF" width="23.344" height="23.345"/>
	
		<rect x="87.987" y="299.328" transform="matrix(0.1131 -0.9936 0.9936 0.1131 -220.6154 374.8532)" opacity="0.5" fill="#FFFFFF" width="23.344" height="23.345"/>
	
		<rect x="131.364" y="324.302" transform="matrix(0.1131 -0.9936 0.9936 0.1131 -206.3344 429.1301)" opacity="0.9" fill="#FFFFFF" width="11.673" height="11.673"/>
	
		<rect x="150.138" y="410.027" transform="matrix(-0.4629 -0.8864 0.8864 -0.4629 -134.9082 769.1808)" opacity="0.9" fill="#FFFFFF" width="30.869" height="30.868"/>
	
		<rect x="98.137" y="457.028" transform="matrix(-0.9518 0.3068 -0.3068 -0.9518 366.6333 887.2856)" opacity="0.5" fill="#FFFFFF" width="30.869" height="30.869"/>
	
		<rect x="110.107" y="565.998" transform="matrix(-0.9518 0.3069 -0.3069 -0.9518 409.9634 1086.4684)" opacity="0.5" fill="#FFFFFF" width="18.929" height="18.93"/>
	
		<rect x="111.327" y="654.872" transform="matrix(-0.3771 0.9262 -0.9262 -0.3771 783.3028 803.332)" opacity="0.5" fill="#FFFFFF" width="20.383" height="20.384"/>
	
		<rect x="160.066" y="376.408" transform="matrix(-0.5473 -0.8369 0.8369 -0.5473 -61.2547 736.8663)" opacity="0.9" fill="#FFFFFF" width="17.184" height="17.183"/>
	
		<rect x="134.624" y="373.962" transform="matrix(-0.2203 -0.9754 0.9754 -0.2203 -198.9347 601.5756)" opacity="0.9" fill="#FFFFFF" width="12.663" height="12.663"/>
	
		<rect x="160.163" y="308.504" transform="matrix(-0.4079 -0.913 0.913 -0.4079 -51.4944 602.6019)" opacity="0.9" fill="#FFFFFF" width="18.991" height="18.991"/>
	<polygon opacity="0.9" fill="#FFFFFF" points="183.576,572.414 180.937,548.273 157.742,551.021 160.381,575.163 	"/>
	<polygon opacity="0.9" fill="#FFFFFF" points="173.375,490.361 185.128,466.938 162.624,454.707 150.871,478.129 	"/>
	<polygon opacity="0.9" fill="#FFFFFF" points="175.146,524.75 184.551,509.781 170.17,499.992 160.765,514.961 	"/>
	<polygon opacity="0.9" fill="#FFFFFF" points="149.736,540.149 152.526,527.293 140.174,524.391 137.384,537.246 	"/>
	<polygon opacity="0.9" fill="#FFFFFF" points="178.455,610.161 186.201,592.113 168.861,584.052 161.115,602.098 	"/>
	<polygon opacity="0.9" fill="#FFFFFF" points="183.576,649.414 180.937,625.273 157.742,628.021 160.381,652.163 	"/>
	<polygon opacity="0.9" fill="#FFFFFF" points="178.455,687.161 186.201,669.113 168.861,661.052 161.115,679.098 	"/>
	<circle opacity="0.2" fill="#FFFFFF" cx="46.758" cy="250.593" r="5.758"/>
	<circle opacity="0.2" fill="#FFFFFF" cx="5.758" cy="491.594" r="5.758"/>
	<circle opacity="0.5" fill="#FFFFFF" cx="74.758" cy="630.594" r="5.758"/>
	<circle opacity="0.2" fill="#FFFFFF" cx="58.758" cy="87.594" r="5.758"/>
</g>
</svg>
