<?xml version="1.0" encoding="utf-8"?>
<!-- Generator: Adobe Illustrator 16.0.0, SVG Export Plug-In . SVG Version: 6.00 Build 0)  -->
<!DOCTYPE svg PUBLIC "-//W3C//DTD SVG 1.1//EN" "http://www.w3.org/Graphics/SVG/1.1/DTD/svg11.dtd">
<svg version="1.1" id="Capa_1" xmlns="http://www.w3.org/2000/svg" xmlns:xlink="http://www.w3.org/1999/xlink" x="0px" y="0px"
	 width="1080px" height="1036.776px" viewBox="420 21.609 1080 1036.776" enable-background="new 420 21.609 1080 1036.776"
	 xml:space="preserve">
<g>
	<path fill="#9FBE5B" d="M970.51,43.375l5.283-5.286c-4.328-0.883-8.684-1.707-13.05-2.48L970.51,43.375z"/>
	<circle fill="#4CBDA8" cx="981.614" cy="540" r="518.386"/>
	<path fill="#FFFFFF" d="M479.279,668.46c8.959,35.146,21.535,68.839,37.261,100.697h930.151
		c15.728-31.858,28.299-65.552,37.261-100.696L479.279,668.46L479.279,668.46z"/>
	<path fill="#FFFFFF" d="M1252.887,98.199l21.922,21.925l-55.816,55.819l-55.816-55.817l45.996-45.997
		c-6.097-2.981-12.263-5.841-18.484-8.589l-41.05,41.051l-55.814-55.819l13.724-13.724c-7.297-1.818-14.646-3.512-22.058-5.018
		l-5.204,5.207l-7.647-7.647c-10.442-1.851-20.996-3.356-31.645-4.569l25.754,25.754l-31.928,31.925V24.311
		c-17.489-1.783-35.239-2.701-53.202-2.701c-38.298,0-75.608,4.192-111.539,12.07v336.125c0,45.493,36.881,82.371,82.371,82.371
		c38.613,0,70.928-26.607,79.848-62.464l50.443-50.446l35.835,35.829c1.87,1.87,4.318,2.806,6.769,2.806
		c2.448,0,4.899-0.936,6.77-2.806c3.74-3.737,3.74-9.8,0-13.533l-35.835-35.832l53.361-53.358l43.025,43.021
		c1.868,1.87,4.318,2.806,6.769,2.806c2.448,0,4.896-0.936,6.77-2.806c3.738-3.738,3.738-9.8,0-13.536l-43.022-43.023l55.816-55.816
		l37.831,37.829c1.87,1.87,4.318,2.803,6.77,2.803c2.45,0,4.898-0.933,6.769-2.803c3.74-3.738,3.74-9.8,0-13.536l-37.829-37.829
		l55.817-55.819l22.554,22.552c1.871,1.87,4.318,2.805,6.77,2.805c2.45,0,4.898-0.935,6.769-2.805
		c0.931-0.933,1.632-2.007,2.099-3.158C1303.705,132.692,1279.072,114.314,1252.887,98.199z M1034.819,109.775l45.466-45.468
		l55.816,55.819l-55.816,55.817l-45.466-45.466V109.775z M1034.819,157.551l31.933,31.93l-31.933,31.925V157.551z M1034.819,360.118
		v-68.771l34.386,34.386L1034.819,360.118z M1082.738,312.194l-47.922-47.924v-15.788l45.466-45.466l55.817,55.816L1082.738,312.194
		z M1149.637,245.298l-55.813-55.817l55.813-55.819l55.817,55.819L1149.637,245.298z"/>
	<ellipse opacity="0.29" fill="#697D3C" enable-background="new    " cx="907.447" cy="926.966" rx="113.067" ry="24.683"/>
	<g>
		<path fill="none" d="M564.33,616.935c10.576-6.561,11.336-12.516,11.336-12.516S574.236,609.211,564.33,616.935z"/>
		<path fill="none" d="M575.666,604.419c4.1-15.188,16.571-57.97,9.45-97.205C590.087,549.242,579.769,589.231,575.666,604.419z"/>
		<path fill="#2B1F15" d="M830.622,854.66c0.511-0.221,1.031-0.422,1.543-0.646l-0.008-0.018L832.154,854L830.622,854.66z"/>
		<path fill="#2B1F15" d="M605.076,840.452c0-6.464-3.319-8.949-3.319-8.949l-80.164-70.776c-4.889-5.898-10.363-3.766-10.363-3.766
			l-0.459,0.104l-29.958,6.774l-0.797,0.181c0,0,75.938,74.891,125.061,94.243v-1.6V840.452z"/>
		<path fill="#EAEBED" d="M984.504,697.263c-0.134-0.084-0.277-0.168-0.459-0.275c-0.124-0.104-0.272-0.23-0.401-0.34
			c-9.434-7.944-30.658-26.128-39.362-35.99c-3.599-4.428-4.415-8.406-4.613-10.073l0.008-0.002
			c-2.441-22.25,3.286-94.357,7.57-112.688c1.31-4.281,4.001-7.9,6.345-10.492l0.01,0.007c9.825-10.47,29.338-25.114,37.43-31.042
			c0.087-0.063-0.085,0.062,0,0c-22.289-68.399-68.832-125.955-129.758-161.943l0.007-0.013c0,0-5.623-3.621-9.941-5.71
			c0,0-0.017,0.003-0.024,0.005c-41.257-22.227-88.412-34.864-138.467-34.864c-29.568,0-58.108,4.765-85.03,12.95v9.803l0.005,0.002
			c-0.146,3.133-1.064,7.499-5.71,10.183L531.43,379.15c0,0-4.244,2.272-9.879,0.519l-11.557-3.629
			c-50.129,48.328-83.284,114.213-89.007,187.734l-0.652,9.575c-0.187,4.42-0.335,8.854-0.335,13.329
			c0,66.619,22.41,128.089,60.016,177.34l0.797-0.182l29.958-6.773l0.459-0.104c0,0,5.475-2.133,10.363,3.766l80.164,70.775
			c0,0,3.319,2.485,3.319,8.949v16.21v1.6c33.376,13.248,69.719,21.247,107.769,21.247c39.171,0,76.548-7.788,110.726-21.808
			l7.049-3.041l1.53-0.659l0.003-0.003c68.365-30.628,123.76-85.971,152.371-155.386c0.125-0.3,0.298-0.727,0.422-1.029
			c-0.082-0.066-0.164-0.121-0.245-0.178C984.647,697.362,984.573,697.311,984.504,697.263z M575.666,604.419
			c0,0-0.762,5.955-11.336,12.516c-13.404,11.985-49.142,29.391-66.334,33.689c-6.543,2.136-10.085-2.446-10.085-2.446
			c-11.76-12.263-41.76-58.051-46.421-78.294c-0.846-4.075,0.439-9.539,0.439-9.539c5.923-17.631,34.428-71.556,52.589-88.734
			c0,0,5.234-6.251,11.326-5.39c16.903,2.207,56.057,17.94,69.831,28.644c4.275,2.946,7.93,6.997,9.44,12.35
			C592.237,546.449,579.769,589.231,575.666,604.419z M825.666,359.659c3.656,1.266,8.326,3.827,11.924,9.416
			c11.01,18.591,26.885,65.574,29.643,81.399c0.404,3.222-0.188,7.322-7.436,14.344c-16.582,14.568-55.249,34.319-73.993,38.33
			c-4.696,0.876-8.999,0.248-11.99-0.503c-22.563-6.224-71.947-35.954-88.69-56.264c-4.673-3.966-7.073-9.698-7.073-9.698
			c-3.838-13.714,13.989-59.721,22.209-79.705c1.95-4.632,4.562-10.589,10.611-11.194
			C734.947,342.644,803.828,353.585,825.666,359.659z M805.885,795.457c0,0-3.874,3.17-8.999,2.751
			c-19.645-0.354-82.784-5.729-101.712-14.59c-4.74-1.743-6.48-6.965-6.48-6.965c-6.447-16.133-20.72-70.565-20.757-94.933
			c0.055-9.123,3.864-12.601,3.864-12.601c12.348-13.831,69.739-47.663,93.42-54.03c0,0,9.645-2.166,17.611,3.482
			c20.218,13.714,58.991,50.06,70.389,65.89c1.396,2.17,3.152,5.888,3.113,9.497C853.752,713.629,821.556,781.081,805.885,795.457z"
			/>
		<path fill="#2B1F15" d="M585.116,507.214c-1.511-5.353-5.165-9.403-9.44-12.35c-13.774-10.703-52.928-26.437-69.831-28.644
			c-6.095-0.861-11.326,5.39-11.326,5.39c-18.164,17.179-46.666,71.101-52.589,88.734c0,0-1.285,5.464-0.439,9.539
			c4.658,20.243,34.661,66.031,46.421,78.294c0,0,3.542,4.582,10.085,2.446c17.192-4.299,52.93-21.704,66.334-33.689
			c9.906-7.724,11.336-12.516,11.336-12.516C579.769,589.231,590.087,549.242,585.116,507.214z"/>
		<path fill="#2B1F15" d="M991.913,498.329c9.217,28.431,14.22,58.759,14.22,90.26c0,39.049-7.27,75.139-21.185,108.994
			c-0.082-0.067-0.164-0.122-0.246-0.179c-0.057-0.042-0.131-0.094-0.2-0.142c-0.135-0.084-0.278-0.168-0.459-0.275
			c-0.124-0.104-0.273-0.23-0.402-0.34c-9.433-7.944-30.658-26.128-39.361-35.99c-3.6-4.428-4.415-8.406-4.613-10.073l0.007-0.002
			c-2.44-22.25,3.287-94.357,7.57-112.688c1.31-4.281,4.001-7.9,6.345-10.492l0.01,0.007c9.825-10.47,29.339-25.114,37.43-31.042"/>
		<path fill="#2B1F15" d="M853.219,684.464c-11.397-15.83-50.172-52.175-70.39-65.89c-7.967-5.647-17.61-3.482-17.61-3.482
			c-23.684,6.367-81.072,40.2-93.42,54.031c0,0-3.81,3.478-3.864,12.6c0.034,24.368,14.31,78.801,20.756,94.934
			c0,0,1.743,5.221,6.481,6.965c18.93,8.857,82.066,14.234,101.711,14.59c5.128,0.419,9-2.751,9-2.751
			c15.673-14.377,47.869-81.829,50.448-101.496C856.371,690.353,854.612,686.635,853.219,684.464z"/>
		<path fill="#2B1F15" d="M531.428,379.147l90.681-52.371c4.644-2.681,5.562-7.049,5.71-10.182l-0.005-0.003v-9.803
			c-44.764,13.586-84.981,37.608-117.821,69.248l11.556,3.629C527.186,381.42,531.428,379.147,531.428,379.147z"/>
		<path fill="#2B1F15" d="M700.259,356.976c-8.22,19.984-26.047,65.991-22.21,79.705c0,0,2.401,5.732,7.074,9.699
			c16.743,20.307,66.131,50.039,88.689,56.263c2.989,0.752,7.293,1.377,11.991,0.504c18.744-4.012,57.411-23.76,73.993-38.33
			c7.247-7.022,7.84-11.122,7.436-14.345c-2.758-15.824-18.633-62.809-29.644-81.399c-3.597-5.588-8.267-8.15-11.923-9.415
			c-21.838-6.075-90.719-17.016-114.799-13.878C704.82,346.387,702.209,352.345,700.259,356.976z"/>
	</g>
	<path opacity="0.46" fill="#68696A" enable-background="new    " d="M480.016,764.019c0,0,75.938,74.891,125.061,94.243
		c33.376,13.247,69.719,21.249,107.769,21.249c39.171,0,76.548-7.788,110.726-21.808l7.049-3.041
		c0.512-0.221,1.032-0.422,1.543-0.645L832.154,854c68.365-30.628,123.761-85.971,152.372-155.386
		c0.124-0.3,0.298-0.727,0.422-1.029c13.915-33.854,21.185-69.944,21.185-108.994c0-31.501-5.003-61.829-14.22-90.259l-0.886-1.965
		c-22.289-68.4-68.831-125.955-129.758-161.943c116.086,132.62,112.043,298.827,24.318,404.009
		C805.245,834.762,635.066,850.051,480.016,764.019z"/>
</g>
</svg>
